<svg width="650" height="650" viewBox="0 0 650 650" fill="none" xmlns="http://www.w3.org/2000/svg">
<circle cx="346" cy="325" r="300" fill="white"/>
<g filter="url(#filter0_d)">
<circle cx="89" cy="168" r="30" fill="#424B7D"/>
<rect x="108.933" y="167.913" width="50" height="20" transform="rotate(27.7039 108.933 167.913)" fill="#424B7D"/>
<path d="M145 189L558 189C563.523 189 568 193.477 568 199V209L145 209V189Z" fill="#424B7D"/>
<path d="M186 378L526 378V388C526 393.523 521.523 398 516 398L196 398C190.477 398 186 393.523 186 388V378Z" fill="#424B7D"/>
<path d="M197 426L515 426V436C515 441.523 510.523 446 505 446L207 446C201.477 446 197 441.523 197 436V426Z" fill="#424B7D"/>
<path d="M163.523 204L216.441 441.975L206.68 444.145C201.289 445.344 195.946 441.946 194.748 436.554L144 208.341L163.523 204Z" fill="#424B7D"/>
<path d="M506.344 394.07L548.474 204.657L568 209L528.04 388.652C526.841 394.043 521.499 397.441 516.108 396.242L506.344 394.07Z" fill="#424B7D"/>
<circle cx="246" cy="476" r="30" fill="#424B7D"/>
<circle cx="476" cy="476" r="30" fill="#424B7D"/>
</g>
<defs>
<filter id="filter0_d" x="55" y="138" width="517" height="376" filterUnits="userSpaceOnUse" color-interpolation-filters="sRGB">
<feFlood flood-opacity="0" result="BackgroundImageFix"/>
<feColorMatrix in="SourceAlpha" type="matrix" values="0 0 0 0 0 0 0 0 0 0 0 0 0 0 0 0 0 0 127 0"/>
<feOffset dy="4"/>
<feGaussianBlur stdDeviation="2"/>
<feColorMatrix type="matrix" values="0 0 0 0 0 0 0 0 0 0 0 0 0 0 0 0 0 0 0.25 0"/>
<feBlend mode="normal" in2="BackgroundImageFix" result="effect1_dropShadow"/>
<feBlend mode="normal" in="SourceGraphic" in2="effect1_dropShadow" result="shape"/>
</filter>
</defs>
</svg>
