<svg width="509" height="368" viewBox="0 0 509 368" fill="none" xmlns="http://www.w3.org/2000/svg">
  <g fill="#424b7d">
    <circle cx="30" cy="30" r="30"/>
    <rect x="49.9331" y="29.9127" width="50" height="20" transform="rotate(27.7039 49.9331 29.9127)"/>
    <path d="M86 51L499 51C504.523 51 509 55.4772 509 61V71L86 71V51Z"/>
    <path d="M127 240L467 240V250C467 255.523 462.523 260 457 260L137 260C131.477 260 127 255.523 127 250V240Z"/>
    <path d="M138 288L456 288V298C456 303.523 451.523 308 446 308L148 308C142.477 308 138 303.523 138 298V288Z"/>
    <path d="M104.523 66L157.441 303.975L147.68 306.145C142.289 307.344 136.946 303.946 135.748 298.554L84.9998 70.3414L104.523 66Z"/>
    <path d="M447.344 256.07L489.474 66.6571L509 71L469.04 250.652C467.841 256.043 462.499 259.441 457.108 258.242L447.344 256.07Z"/>
    <circle cx="187" cy="338" r="30"/>
    <circle cx="417" cy="338" r="30"/>
  </g>
</svg>
